<?xml version="1.0" encoding="UTF-8" standalone="no"?>
<!-- Created with Inkscape (http://www.inkscape.org/) -->

<svg
   width="200"
   height="100"
   viewBox="0 0 52.916665 26.458334"
   version="1.1"
   id="svg5566"
   sodipodi:docname="flat.svg"
   inkscape:version="1.1.1 (3bf5ae0d25, 2021-09-20)"
   xmlns:inkscape="http://www.inkscape.org/namespaces/inkscape"
   xmlns:sodipodi="http://sodipodi.sourceforge.net/DTD/sodipodi-0.dtd"
   xmlns="http://www.w3.org/2000/svg"
   xmlns:svg="http://www.w3.org/2000/svg">
  <sodipodi:namedview
     id="namedview5568"
     pagecolor="#ffffff"
     bordercolor="#666666"
     borderopacity="1.0"
     inkscape:pageshadow="2"
     inkscape:pageopacity="0.0"
     inkscape:pagecheckerboard="0"
     inkscape:document-units="mm"
     showgrid="false"
     units="px"
     inkscape:zoom="2"
     inkscape:cx="88.75"
     inkscape:cy="91.25"
     inkscape:window-width="1366"
     inkscape:window-height="705"
     inkscape:window-x="-8"
     inkscape:window-y="-8"
     inkscape:window-maximized="1"
     inkscape:current-layer="layer1">
    <sodipodi:guide
       position="0,26.458333"
       orientation="0,200"
       id="guide6911" />
    <sodipodi:guide
       position="52.916666,26.458333"
       orientation="100,0"
       id="guide6913" />
    <sodipodi:guide
       position="52.916666,0"
       orientation="0,-200"
       id="guide6915" />
    <sodipodi:guide
       position="0,0"
       orientation="-100,0"
       id="guide6917" />
  </sodipodi:namedview>
  <defs
     id="defs5563" />
  <g
     inkscape:label="Calque 1"
     inkscape:groupmode="layer"
     id="layer1">
    <g
       id="g3504"
       transform="translate(0,17.799413)">
      <path
         d="m 0,5.48392 h 0.264599 v 1.0583 H 0 Z m 0.264583,0 h 0.2646 v 1.0583 h -0.2646 z m 0.264584,0 h 0.264599 v 1.0583 H 0.529167 Z m 0.264583,0 h 0.2646 v 1.0583 h -0.2646 z m 0.26458,0 h 0.2646 v 1.0583 h -0.2646 z m 0.26459,0 h 0.2646 v 1.0583 h -0.2646 z m 0.26458,0 h 0.2646 v 1.0583 H 1.5875 Z m 0.26458,0 h 0.2646 v 1.0583 h -0.2646 z m 0.26459,0 h 0.2646 v 1.0583 h -0.2646 z m 0.26458,0 h 0.2646 v 1.0583 h -0.2646 z m 0.26458,0 h 0.2646 v 1.0583 h -0.2646 z m 0.26459,0 h 0.2646 v 1.0583 h -0.2646 z m 0.26458,0 h 0.2646 v 1.0583 H 3.175 Z m 0.26459,0 h 0.26459 v 1.0583 H 3.43959 Z m 0.26458,0 h 0.2646 v 1.0583 h -0.2646 z m 0.26458,0 h 0.2646 v 1.0583 h -0.2646 z m 0.26459,0 h 0.2646 v 1.0583 h -0.2646 z m 0.26458,0 h 0.2646 v 1.0583 h -0.2646 z m 0.26458,0 h 0.2646 v 1.0583 H 4.7625 Z m 0.26459,0 h 0.2646 v 1.0583 h -0.2646 z m 0.26458,0 h 0.2646 v 1.0583 h -0.2646 z m 0.26458,0 h 0.2646 v 1.0583 h -0.2646 z m 0.26459,0 h 0.2646 v 1.0583 h -0.2646 z m 0.26458,0 h 0.2646 v 1.0583 h -0.2646 z m 0.26458,0 h 0.2646 v 1.0583 H 6.35 Z m 0.26459,0 h 0.2646 v 1.0583 h -0.2646 z m 0.26458,0 h 0.2646 v 1.0583 h -0.2646 z m 0.26458,0 h 0.2646 v 1.0583 h -0.2646 z m 0.26459,0 h 0.2646 v 1.0583 h -0.2646 z m 0.26458,0 h 0.2646 v 1.0583 h -0.2646 z m 0.26458,0 h 0.2646 v 1.0583 H 7.9375 Z m 0.26459,0 h 0.2646 v 1.0583 h -0.2646 z m 0.26458,0 h 0.2646 v 1.0583 h -0.2646 z m 0.26459,0 h 0.26459 v 1.0583 H 8.73126 Z m 0.26458,0 h 0.2646 v 1.0583 h -0.2646 z m 0.26458,0 h 0.2646 v 1.0583 h -0.2646 z m 0.26459,0 h 0.2646 v 1.0583 h -0.2646 z m 0.26458,0 h 0.26461 v 1.0583 H 9.78959 Z m 0.26461,0 h 0.2646 v 1.0583 h -0.2646 z m 0.2646,0 h 0.2646 v 1.0583 h -0.2646 z m 0.2645,0 h 0.2646 v 1.0583 h -0.2646 z m 0.2646,0 h 0.2646 v 1.0583 h -0.2646 z m 0.2646,0 h 0.2646 v 1.0583 h -0.2646 z m 0.2646,0 h 0.2646 v 1.0583 h -0.2646 z m 0.2646,0 h 0.2646 v 1.0583 h -0.2646 z m 0.2646,0 h 0.2646 v 1.0583 h -0.2646 z m 0.2645,0 h 0.2646 v 1.0583 h -0.2646 z m 0.2646,0 H 12.7 v 1.0583 h -0.2646 z m 0.2646,0 h 0.2646 v 1.0583 H 12.7 Z m 0.2646,0 h 0.2646 v 1.0583 h -0.2646 z m 0.2646,0 h 0.2646 v 1.0583 h -0.2646 z m 0.2646,0 h 0.2646 v 1.0583 h -0.2646 z m 0.2645,0 h 0.2646 v 1.0583 h -0.2646 z m 0.2646,0 h 0.2646 v 1.0583 h -0.2646 z m 0.2646,0 h 0.2646 v 1.0583 h -0.2646 z m 0.2646,0 h 0.2646 v 1.0583 h -0.2646 z m 0.2646,0 h 0.2646 v 1.0583 h -0.2646 z m 0.2646,0 h 0.2646 v 1.0583 h -0.2646 z m 0.2645,0 h 0.2646 v 1.0583 h -0.2646 z m 0.2646,0 h 0.2646 v 1.0583 h -0.2646 z m 0.2646,0 h 0.2646 v 1.0583 H 15.875 Z m 0.2646,0 h 0.2646 v 1.0583 h -0.2646 z m 0.2646,0 h 0.2646 v 1.0583 h -0.2646 z m 0.2646,0 h 0.2646 v 1.0583 h -0.2646 z m 0.2645,0 h 0.2646 v 1.0583 h -0.2646 z m 0.2646,0 h 0.2646 v 1.0583 h -0.2646 z m 0.2646,0 h 0.2646 v 1.0583 h -0.2646 z m 0.2646,0 h 0.2646 v 1.0583 h -0.2646 z m 0.2646,0 h 0.2646 v 1.0583 h -0.2646 z m 0.2646,0 h 0.2646 v 1.0583 h -0.2646 z m 0.2645,0 h 0.2646 v 1.0583 h -0.2646 z m 0.2646,0 H 19.05 v 1.0583 h -0.2646 z m 0.2646,0 h 0.2646 v 1.0583 H 19.05 Z m 0.2646,0 h 0.2646 v 1.0583 h -0.2646 z m 0.2646,0 h 0.2646 v 1.0583 h -0.2646 z m 0.2646,0 h 0.2646 v 1.0583 h -0.2646 z m 0.2645,0 h 0.2646 v 1.0583 h -0.2646 z m 0.2646,0 h 0.2646 v 1.0583 h -0.2646 z m 0.2646,0 h 0.2646 v 1.0583 h -0.2646 z m 0.2646,0 h 0.2646 v 1.0583 h -0.2646 z m 0.2646,0 h 0.2646 v 1.0583 h -0.2646 z m 0.2646,0 h 0.2646 v 1.0583 h -0.2646 z m 0.2645,0 h 0.2646 v 1.0583 h -0.2646 z m 0.2646,0 h 0.2646 v 1.0583 h -0.2646 z m 0.2646,0 h 0.2646 v 1.0583 H 22.225 Z m 0.2646,0 h 0.2646 v 1.0583 h -0.2646 z m 0.2646,0 h 0.2646 v 1.0583 h -0.2646 z m 0.2646,0 h 0.2646 v 1.0583 h -0.2646 z m 0.2645,0 h 0.2646 v 1.0583 h -0.2646 z m 0.2646,0 h 0.2646 v 1.0583 h -0.2646 z m 0.2646,0 h 0.2646 v 1.0583 h -0.2646 z m 0.2646,0 h 0.2646 v 1.0583 h -0.2646 z m 0.2646,0 h 0.2646 v 1.0583 h -0.2646 z m 0.2646,0 h 0.2646 v 1.0583 h -0.2646 z m 0.2645,0 h 0.2646 v 1.0583 h -0.2646 z m 0.2646,0 H 25.4 v 1.0583 h -0.2646 z m 0.2646,0 h 0.2646 v 1.0583 H 25.4 Z m 0.2646,0 h 0.2646 v 1.0583 h -0.2646 z m 0.2646,0 h 0.2646 v 1.0583 h -0.2646 z m 0.2646,0 h 0.2646 v 1.0583 h -0.2646 z m 0.2645,0 h 0.2646 v 1.0583 h -0.2646 z m 0.2646,0 h 0.2646 v 1.0583 h -0.2646 z m 0.2646,0 h 0.2646 v 1.0583 h -0.2646 z m 0.2646,0 h 0.2646 v 1.0583 h -0.2646 z m 0.2646,0 h 0.2646 v 1.0583 h -0.2646 z m 0.2646,0 h 0.2646 v 1.0583 h -0.2646 z m 0.2646,0 h 0.2646 v 1.0583 h -0.2646 z m 0.2645,0 h 0.2646 v 1.0583 h -0.2646 z m 0.2646,0 h 0.2646 v 1.0583 H 28.575 Z m 0.2646,0 h 0.2646 v 1.0583 h -0.2646 z m 0.2646,0 h 0.2646 v 1.0583 h -0.2646 z m 0.2646,0 h 0.2646 v 1.0583 h -0.2646 z m 0.2646,0 h 0.2646 v 1.0583 h -0.2646 z m 0.2645,0 h 0.2646 v 1.0583 h -0.2646 z m 0.2646,0 h 0.2646 v 1.0583 h -0.2646 z m 0.2646,0 h 0.2646 v 1.0583 h -0.2646 z m 0.2646,0 h 0.2646 v 1.0583 h -0.2646 z m 0.2646,0 h 0.2646 v 1.0583 h -0.2646 z m 0.2646,0 h 0.2646 v 1.0583 h -0.2646 z m 0.2645,0 H 31.75 v 1.0583 h -0.2646 z m 0.2646,0 h 0.2646 v 1.0583 H 31.75 Z m 0.2646,0 h 0.2646 v 1.0583 h -0.2646 z m 0.2646,0 h 0.2646 v 1.0583 h -0.2646 z m 0.2646,0 h 0.2646 v 1.0583 h -0.2646 z m 0.2646,0 h 0.2646 v 1.0583 h -0.2646 z m 0.2645,0 h 0.2646 v 1.0583 h -0.2646 z m 0.2646,0 h 0.2646 v 1.0583 h -0.2646 z m 0.2646,0 h 0.2646 v 1.0583 h -0.2646 z m 0.2646,0 h 0.2646 v 1.0583 h -0.2646 z m 0.2646,0 h 0.2646 v 1.0583 h -0.2646 z m 0.2646,0 h 0.2646 v 1.0583 h -0.2646 z m 0.2645,0 h 0.2646 v 1.0583 h -0.2646 z m 0.2646,0 h 0.2646 v 1.0583 H 34.925 Z m 0.2646,0 h 0.2646 v 1.0583 h -0.2646 z m 0.2646,0 h 0.2646 v 1.0583 h -0.2646 z m 0.2646,0 h 0.2646 v 1.0583 h -0.2646 z m 0.2646,0 h 0.2646 v 1.0583 h -0.2646 z m 0.2645,0 h 0.2646 v 1.0583 h -0.2646 z m 0.2646,0 h 0.2646 v 1.0583 h -0.2646 z m 0.2646,0 h 0.2646 v 1.0583 h -0.2646 z m 0.2646,0 h 0.2646 v 1.0583 h -0.2646 z m 0.2646,0 h 0.2646 v 1.0583 h -0.2646 z m 0.2646,0 h 0.2646 v 1.0583 h -0.2646 z m 0.2645,0 H 38.1 v 1.0583 h -0.2646 z m 0.2646,0 h 0.2646 v 1.0583 H 38.1 Z m 0.2646,0 h 0.2646 v 1.0583 h -0.2646 z m 0.2646,0 h 0.2646 v 1.0583 h -0.2646 z m 0.2646,0 h 0.2646 v 1.0583 h -0.2646 z m 0.2646,0 h 0.2646 v 1.0583 h -0.2646 z m 0.2645,0 h 0.2646 v 1.0583 h -0.2646 z m 0.2646,0 h 0.2646 v 1.0583 h -0.2646 z m 0.2646,0 h 0.2646 v 1.0583 h -0.2646 z m 0.2646,0 h 0.2646 v 1.0583 h -0.2646 z m 0.2646,0 h 0.2646 v 1.0583 h -0.2646 z m 0.2646,0 h 0.2646 v 1.0583 h -0.2646 z m 0.2645,0 h 0.2646 v 1.0583 h -0.2646 z m 0.2646,0 h 0.2646 v 1.0583 H 41.275 Z m 0.2646,0 h 0.2646 v 1.0583 h -0.2646 z m 0.2646,0 h 0.2646 v 1.0583 h -0.2646 z m 0.2646,0 h 0.2646 v 1.0583 h -0.2646 z m 0.2646,0 h 0.2646 v 1.0583 h -0.2646 z m 0.2645,0 h 0.2646 v 1.0583 h -0.2646 z m 0.2646,0 h 0.2646 v 1.0583 h -0.2646 z m 0.2646,0 h 0.2646 v 1.0583 h -0.2646 z m 0.2646,0 h 0.2646 v 1.0583 h -0.2646 z m 0.2646,0 h 0.2646 v 1.0583 h -0.2646 z m 0.2646,0 h 0.2646 v 1.0583 h -0.2646 z m 0.2645,0 H 44.45 v 1.0583 h -0.2646 z m 0.2646,0 h 0.2646 v 1.0583 H 44.45 Z m 0.2646,0 h 0.2646 v 1.0583 h -0.2646 z m 0.2646,0 h 0.2646 v 1.0583 h -0.2646 z m 0.2646,0 h 0.2646 v 1.0583 h -0.2646 z m 0.2646,0 h 0.2646 v 1.0583 h -0.2646 z m 0.2645,0 h 0.2646 v 1.0583 h -0.2646 z m 0.2646,0 h 0.2646 v 1.0583 h -0.2646 z m 0.2646,0 h 0.2646 v 1.0583 h -0.2646 z m 0.2646,0 h 0.2646 v 1.0583 h -0.2646 z m 0.2646,0 h 0.2646 v 1.0583 h -0.2646 z m 0.2646,0 h 0.2646 v 1.0583 h -0.2646 z m 0.2645,0 h 0.2646 v 1.0583 h -0.2646 z m 0.2646,0 h 0.2646 v 1.0583 H 47.625 Z m 0.2646,0 h 0.2646 v 1.0583 h -0.2646 z m 0.2646,0 h 0.2646 v 1.0583 h -0.2646 z m 0.2646,0 h 0.2646 v 1.0583 h -0.2646 z m 0.2646,0 h 0.2646 v 1.0583 h -0.2646 z m 0.2645,0 h 0.2646 v 1.0583 h -0.2646 z m 0.2646,0 h 0.2646 v 1.0583 h -0.2646 z m 0.2646,0 h 0.2646 v 1.0583 h -0.2646 z m 0.2646,0 h 0.2646 v 1.0583 h -0.2646 z m 0.2646,0 h 0.2646 v 1.0583 h -0.2646 z m 0.2646,0 h 0.2646 v 1.0583 h -0.2646 z m 0.2645,0 H 50.8 v 1.0583 h -0.2646 z m 0.2646,0 h 0.2646 v 1.0583 H 50.8 Z m 0.2646,0 h 0.2646 v 1.0583 h -0.2646 z m 0.2646,0 h 0.2646 v 1.0583 h -0.2646 z m 0.2646,0 h 0.2646 v 1.0583 h -0.2646 z m 0.2646,0 h 0.2646 v 1.0583 h -0.2646 z m 0.2645,0 h 0.2646 v 1.0583 h -0.2646 z m 0.2646,0 h 0.2646 v 1.0583 h -0.2646 z m 0.2646,0 h 0.2646 v 1.0583 h -0.2646 z"
         style="fill:#ff901c;stroke-width:0.214;stroke-linecap:square"
         id="path6943" />
      <path
         d="m 0,6.54222 h 0.264599 v 1.0583 H 0 Z m 0.264583,0 h 0.2646 v 1.0583 h -0.2646 z m 0.264584,0 h 0.264599 v 1.0583 H 0.529167 Z m 0.264583,0 h 0.2646 v 1.0583 h -0.2646 z m 0.26458,0 h 0.2646 v 1.0583 h -0.2646 z m 0.26459,0 h 0.2646 v 1.0583 h -0.2646 z m 0.26458,0 h 0.2646 v 1.0583 H 1.5875 Z m 0.26458,0 h 0.2646 v 1.0583 h -0.2646 z m 0.26459,0 h 0.2646 v 1.0583 h -0.2646 z m 0.26458,0 h 0.2646 v 1.0583 h -0.2646 z m 0.26458,0 h 0.2646 v 1.0583 h -0.2646 z m 0.26459,0 h 0.2646 v 1.0583 h -0.2646 z m 0.26458,0 h 0.2646 v 1.0583 H 3.175 Z m 0.26459,0 h 0.26459 v 1.0583 H 3.43959 Z m 0.26458,0 h 0.2646 v 1.0583 h -0.2646 z m 0.26458,0 h 0.2646 v 1.0583 h -0.2646 z m 0.26459,0 h 0.2646 v 1.0583 h -0.2646 z m 0.26458,0 h 0.2646 v 1.0583 h -0.2646 z m 0.26458,0 h 0.2646 v 1.0583 H 4.7625 Z m 0.26459,0 h 0.2646 v 1.0583 h -0.2646 z m 0.26458,0 h 0.2646 v 1.0583 h -0.2646 z m 0.26458,0 h 0.2646 v 1.0583 h -0.2646 z m 0.26459,0 h 0.2646 v 1.0583 h -0.2646 z m 0.26458,0 h 0.2646 v 1.0583 h -0.2646 z m 0.26458,0 h 0.2646 v 1.0583 H 6.35 Z m 0.26459,0 h 0.2646 v 1.0583 h -0.2646 z m 0.26458,0 h 0.2646 v 1.0583 h -0.2646 z m 0.26458,0 h 0.2646 v 1.0583 h -0.2646 z m 0.26459,0 h 0.2646 v 1.0583 h -0.2646 z m 0.26458,0 h 0.2646 v 1.0583 h -0.2646 z m 0.26458,0 h 0.2646 v 1.0583 H 7.9375 Z m 0.26459,0 h 0.2646 v 1.0583 h -0.2646 z m 0.26458,0 h 0.2646 v 1.0583 h -0.2646 z m 0.26459,0 h 0.26459 v 1.0583 H 8.73126 Z m 0.26458,0 h 0.2646 v 1.0583 h -0.2646 z m 0.26458,0 h 0.2646 v 1.0583 h -0.2646 z m 0.26459,0 h 0.2646 v 1.0583 h -0.2646 z m 0.26458,0 h 0.26461 v 1.0583 H 9.78959 Z m 0.26461,0 h 0.2646 v 1.0583 h -0.2646 z m 0.2646,0 h 0.2646 v 1.0583 h -0.2646 z m 0.2645,0 h 0.2646 v 1.0583 h -0.2646 z m 0.2646,0 h 0.2646 v 1.0583 h -0.2646 z m 0.2646,0 h 0.2646 v 1.0583 h -0.2646 z m 0.2646,0 h 0.2646 v 1.0583 h -0.2646 z m 0.2646,0 h 0.2646 v 1.0583 h -0.2646 z m 0.2646,0 h 0.2646 v 1.0583 h -0.2646 z m 0.2645,0 h 0.2646 v 1.0583 h -0.2646 z m 0.2646,0 H 12.7 v 1.0583 h -0.2646 z m 0.2646,0 h 0.2646 v 1.0583 H 12.7 Z m 0.2646,0 h 0.2646 v 1.0583 h -0.2646 z m 0.2646,0 h 0.2646 v 1.0583 h -0.2646 z m 0.2646,0 h 0.2646 v 1.0583 h -0.2646 z m 0.2645,0 h 0.2646 v 1.0583 h -0.2646 z m 0.2646,0 h 0.2646 v 1.0583 h -0.2646 z m 0.2646,0 h 0.2646 v 1.0583 h -0.2646 z m 0.2646,0 h 0.2646 v 1.0583 h -0.2646 z m 0.2646,0 h 0.2646 v 1.0583 h -0.2646 z m 0.2646,0 h 0.2646 v 1.0583 h -0.2646 z m 0.2645,0 h 0.2646 v 1.0583 h -0.2646 z m 0.2646,0 h 0.2646 v 1.0583 h -0.2646 z m 0.2646,0 h 0.2646 v 1.0583 H 15.875 Z m 0.2646,0 h 0.2646 v 1.0583 h -0.2646 z m 0.2646,0 h 0.2646 v 1.0583 h -0.2646 z m 0.2646,0 h 0.2646 v 1.0583 h -0.2646 z m 0.2645,0 h 0.2646 v 1.0583 h -0.2646 z m 0.2646,0 h 0.2646 v 1.0583 h -0.2646 z m 0.2646,0 h 0.2646 v 1.0583 h -0.2646 z m 0.2646,0 h 0.2646 v 1.0583 h -0.2646 z m 0.2646,0 h 0.2646 v 1.0583 h -0.2646 z m 0.2646,0 h 0.2646 v 1.0583 h -0.2646 z m 0.2645,0 h 0.2646 v 1.0583 h -0.2646 z m 0.2646,0 H 19.05 v 1.0583 h -0.2646 z m 0.2646,0 h 0.2646 v 1.0583 H 19.05 Z m 0.2646,0 h 0.2646 v 1.0583 h -0.2646 z m 0.2646,0 h 0.2646 v 1.0583 h -0.2646 z m 0.2646,0 h 0.2646 v 1.0583 h -0.2646 z m 0.2645,0 h 0.2646 v 1.0583 h -0.2646 z m 0.2646,0 h 0.2646 v 1.0583 h -0.2646 z m 0.2646,0 h 0.2646 v 1.0583 h -0.2646 z m 0.2646,0 h 0.2646 v 1.0583 h -0.2646 z m 0.2646,0 h 0.2646 v 1.0583 h -0.2646 z m 0.2646,0 h 0.2646 v 1.0583 h -0.2646 z m 0.2645,0 h 0.2646 v 1.0583 h -0.2646 z m 0.2646,0 h 0.2646 v 1.0583 h -0.2646 z m 0.2646,0 h 0.2646 v 1.0583 H 22.225 Z m 0.2646,0 h 0.2646 v 1.0583 h -0.2646 z m 0.2646,0 h 0.2646 v 1.0583 h -0.2646 z m 0.2646,0 h 0.2646 v 1.0583 h -0.2646 z m 0.2645,0 h 0.2646 v 1.0583 h -0.2646 z m 0.2646,0 h 0.2646 v 1.0583 h -0.2646 z m 0.2646,0 h 0.2646 v 1.0583 h -0.2646 z m 0.2646,0 h 0.2646 v 1.0583 h -0.2646 z m 0.2646,0 h 0.2646 v 1.0583 h -0.2646 z m 0.2646,0 h 0.2646 v 1.0583 h -0.2646 z m 0.2645,0 h 0.2646 v 1.0583 h -0.2646 z m 0.2646,0 H 25.4 v 1.0583 h -0.2646 z m 0.2646,0 h 0.2646 v 1.0583 H 25.4 Z m 0.2646,0 h 0.2646 v 1.0583 h -0.2646 z m 0.2646,0 h 0.2646 v 1.0583 h -0.2646 z m 0.2646,0 h 0.2646 v 1.0583 h -0.2646 z m 0.2645,0 h 0.2646 v 1.0583 h -0.2646 z m 0.2646,0 h 0.2646 v 1.0583 h -0.2646 z m 0.2646,0 h 0.2646 v 1.0583 h -0.2646 z m 0.2646,0 h 0.2646 v 1.0583 h -0.2646 z m 0.2646,0 h 0.2646 v 1.0583 h -0.2646 z m 0.2646,0 h 0.2646 v 1.0583 h -0.2646 z m 0.2646,0 h 0.2646 v 1.0583 h -0.2646 z m 0.2645,0 h 0.2646 v 1.0583 h -0.2646 z m 0.2646,0 h 0.2646 v 1.0583 H 28.575 Z m 0.2646,0 h 0.2646 v 1.0583 h -0.2646 z m 0.2646,0 h 0.2646 v 1.0583 h -0.2646 z m 0.2646,0 h 0.2646 v 1.0583 h -0.2646 z m 0.2646,0 h 0.2646 v 1.0583 h -0.2646 z m 0.2645,0 h 0.2646 v 1.0583 h -0.2646 z m 0.2646,0 h 0.2646 v 1.0583 h -0.2646 z m 0.2646,0 h 0.2646 v 1.0583 h -0.2646 z m 0.2646,0 h 0.2646 v 1.0583 h -0.2646 z m 0.2646,0 h 0.2646 v 1.0583 h -0.2646 z m 0.2646,0 h 0.2646 v 1.0583 h -0.2646 z m 0.2645,0 H 31.75 v 1.0583 h -0.2646 z m 0.2646,0 h 0.2646 v 1.0583 H 31.75 Z m 0.2646,0 h 0.2646 v 1.0583 h -0.2646 z m 0.2646,0 h 0.2646 v 1.0583 h -0.2646 z m 0.2646,0 h 0.2646 v 1.0583 h -0.2646 z m 0.2646,0 h 0.2646 v 1.0583 h -0.2646 z m 0.2645,0 h 0.2646 v 1.0583 h -0.2646 z m 0.2646,0 h 0.2646 v 1.0583 h -0.2646 z m 0.2646,0 h 0.2646 v 1.0583 h -0.2646 z m 0.2646,0 h 0.2646 v 1.0583 h -0.2646 z m 0.2646,0 h 0.2646 v 1.0583 h -0.2646 z m 0.2646,0 h 0.2646 v 1.0583 h -0.2646 z m 0.2645,0 h 0.2646 v 1.0583 h -0.2646 z m 0.2646,0 h 0.2646 v 1.0583 H 34.925 Z m 0.2646,0 h 0.2646 v 1.0583 h -0.2646 z m 0.2646,0 h 0.2646 v 1.0583 h -0.2646 z m 0.2646,0 h 0.2646 v 1.0583 h -0.2646 z m 0.2646,0 h 0.2646 v 1.0583 h -0.2646 z m 0.2645,0 h 0.2646 v 1.0583 h -0.2646 z m 0.2646,0 h 0.2646 v 1.0583 h -0.2646 z m 0.2646,0 h 0.2646 v 1.0583 h -0.2646 z m 0.2646,0 h 0.2646 v 1.0583 h -0.2646 z m 0.2646,0 h 0.2646 v 1.0583 h -0.2646 z m 0.2646,0 h 0.2646 v 1.0583 h -0.2646 z m 0.2645,0 H 38.1 v 1.0583 h -0.2646 z m 0.2646,0 h 0.2646 v 1.0583 H 38.1 Z m 0.2646,0 h 0.2646 v 1.0583 h -0.2646 z m 0.2646,0 h 0.2646 v 1.0583 h -0.2646 z m 0.2646,0 h 0.2646 v 1.0583 h -0.2646 z m 0.2646,0 h 0.2646 v 1.0583 h -0.2646 z m 0.2645,0 h 0.2646 v 1.0583 h -0.2646 z m 0.2646,0 h 0.2646 v 1.0583 h -0.2646 z m 0.2646,0 h 0.2646 v 1.0583 h -0.2646 z m 0.2646,0 h 0.2646 v 1.0583 h -0.2646 z m 0.2646,0 h 0.2646 v 1.0583 h -0.2646 z m 0.2646,0 h 0.2646 v 1.0583 h -0.2646 z m 0.2645,0 h 0.2646 v 1.0583 h -0.2646 z m 0.2646,0 h 0.2646 v 1.0583 H 41.275 Z m 0.2646,0 h 0.2646 v 1.0583 h -0.2646 z m 0.2646,0 h 0.2646 v 1.0583 h -0.2646 z m 0.2646,0 h 0.2646 v 1.0583 h -0.2646 z m 0.2646,0 h 0.2646 v 1.0583 h -0.2646 z m 0.2645,0 h 0.2646 v 1.0583 h -0.2646 z m 0.2646,0 h 0.2646 v 1.0583 h -0.2646 z m 0.2646,0 h 0.2646 v 1.0583 h -0.2646 z m 0.2646,0 h 0.2646 v 1.0583 h -0.2646 z m 0.2646,0 h 0.2646 v 1.0583 h -0.2646 z m 0.2646,0 h 0.2646 v 1.0583 h -0.2646 z m 0.2645,0 H 44.45 v 1.0583 h -0.2646 z m 0.2646,0 h 0.2646 v 1.0583 H 44.45 Z m 0.2646,0 h 0.2646 v 1.0583 h -0.2646 z m 0.2646,0 h 0.2646 v 1.0583 h -0.2646 z m 0.2646,0 h 0.2646 v 1.0583 h -0.2646 z m 0.2646,0 h 0.2646 v 1.0583 h -0.2646 z m 0.2645,0 h 0.2646 v 1.0583 h -0.2646 z m 0.2646,0 h 0.2646 v 1.0583 h -0.2646 z m 0.2646,0 h 0.2646 v 1.0583 h -0.2646 z m 0.2646,0 h 0.2646 v 1.0583 h -0.2646 z m 0.2646,0 h 0.2646 v 1.0583 h -0.2646 z m 0.2646,0 h 0.2646 v 1.0583 h -0.2646 z m 0.2645,0 h 0.2646 v 1.0583 h -0.2646 z m 0.2646,0 h 0.2646 v 1.0583 H 47.625 Z m 0.2646,0 h 0.2646 v 1.0583 h -0.2646 z m 0.2646,0 h 0.2646 v 1.0583 h -0.2646 z m 0.2646,0 h 0.2646 v 1.0583 h -0.2646 z m 0.2646,0 h 0.2646 v 1.0583 h -0.2646 z m 0.2645,0 h 0.2646 v 1.0583 h -0.2646 z m 0.2646,0 h 0.2646 v 1.0583 h -0.2646 z m 0.2646,0 h 0.2646 v 1.0583 h -0.2646 z m 0.2646,0 h 0.2646 v 1.0583 h -0.2646 z m 0.2646,0 h 0.2646 v 1.0583 h -0.2646 z m 0.2646,0 h 0.2646 v 1.0583 h -0.2646 z m 0.2645,0 H 50.8 v 1.0583 h -0.2646 z m 0.2646,0 h 0.2646 v 1.0583 H 50.8 Z m 0.2646,0 h 0.2646 v 1.0583 h -0.2646 z m 0.2646,0 h 0.2646 v 1.0583 h -0.2646 z m 0.2646,0 h 0.2646 v 1.0583 h -0.2646 z m 0.2646,0 h 0.2646 v 1.0583 h -0.2646 z m 0.2645,0 h 0.2646 v 1.0583 h -0.2646 z m 0.2646,0 h 0.2646 v 1.0583 h -0.2646 z m 0.2646,0 h 0.2646 v 1.0583 h -0.2646 z"
         style="fill:#d46514;stroke-width:0.214;stroke-linecap:square"
         id="path6945" />
      <path
         d="m 0,7.60062 h 0.264599 v 1.0583 H 0 Z m 0.264583,0 h 0.2646 v 1.0583 h -0.2646 z m 0.264584,0 h 0.264599 v 1.0583 H 0.529167 Z m 0.264583,0 h 0.2646 v 1.0583 h -0.2646 z m 0.26458,0 h 0.2646 v 1.0583 h -0.2646 z m 0.26459,0 h 0.2646 v 1.0583 h -0.2646 z m 0.26458,0 h 0.2646 v 1.0583 H 1.5875 Z m 0.26458,0 h 0.2646 v 1.0583 h -0.2646 z m 0.26459,0 h 0.2646 v 1.0583 h -0.2646 z m 0.26458,0 h 0.2646 v 1.0583 h -0.2646 z m 0.26458,0 h 0.2646 v 1.0583 h -0.2646 z m 0.26459,0 h 0.2646 v 1.0583 h -0.2646 z m 0.26458,0 h 0.2646 v 1.0583 H 3.175 Z m 0.26459,0 h 0.26459 v 1.0583 H 3.43959 Z m 0.26458,0 h 0.2646 v 1.0583 h -0.2646 z m 0.26458,0 h 0.2646 v 1.0583 h -0.2646 z m 0.26459,0 h 0.2646 v 1.0583 h -0.2646 z m 0.26458,0 h 0.2646 v 1.0583 h -0.2646 z m 0.26458,0 h 0.2646 v 1.0583 H 4.7625 Z m 0.26459,0 h 0.2646 v 1.0583 h -0.2646 z m 0.26458,0 h 0.2646 v 1.0583 h -0.2646 z m 0.26458,0 h 0.2646 v 1.0583 h -0.2646 z m 0.26459,0 h 0.2646 v 1.0583 h -0.2646 z m 0.26458,0 h 0.2646 v 1.0583 h -0.2646 z m 0.26458,0 h 0.2646 v 1.0583 H 6.35 Z m 0.26459,0 h 0.2646 v 1.0583 h -0.2646 z m 0.26458,0 h 0.2646 v 1.0583 h -0.2646 z m 0.26458,0 h 0.2646 v 1.0583 h -0.2646 z m 0.26459,0 h 0.2646 v 1.0583 h -0.2646 z m 0.26458,0 h 0.2646 v 1.0583 h -0.2646 z m 0.26458,0 h 0.2646 v 1.0583 H 7.9375 Z m 0.26459,0 h 0.2646 v 1.0583 h -0.2646 z m 0.26458,0 h 0.2646 v 1.0583 h -0.2646 z m 0.26459,0 h 0.26459 v 1.0583 H 8.73126 Z m 0.26458,0 h 0.2646 v 1.0583 h -0.2646 z m 0.26458,0 h 0.2646 v 1.0583 h -0.2646 z m 0.26459,0 h 0.2646 v 1.0583 h -0.2646 z m 0.26458,0 h 0.26461 v 1.0583 H 9.78959 Z m 0.26461,0 h 0.2646 v 1.0583 h -0.2646 z m 0.2646,0 h 0.2646 v 1.0583 h -0.2646 z m 0.2645,0 h 0.2646 v 1.0583 h -0.2646 z m 0.2646,0 h 0.2646 v 1.0583 h -0.2646 z m 0.2646,0 h 0.2646 v 1.0583 h -0.2646 z m 0.2646,0 h 0.2646 v 1.0583 h -0.2646 z m 0.2646,0 h 0.2646 v 1.0583 h -0.2646 z m 0.2646,0 h 0.2646 v 1.0583 h -0.2646 z m 0.2645,0 h 0.2646 v 1.0583 h -0.2646 z m 0.2646,0 H 12.7 v 1.0583 h -0.2646 z m 0.2646,0 h 0.2646 v 1.0583 H 12.7 Z m 0.2646,0 h 0.2646 v 1.0583 h -0.2646 z m 0.2646,0 h 0.2646 v 1.0583 h -0.2646 z m 0.2646,0 h 0.2646 v 1.0583 h -0.2646 z m 0.2645,0 h 0.2646 v 1.0583 h -0.2646 z m 0.2646,0 h 0.2646 v 1.0583 h -0.2646 z m 0.2646,0 h 0.2646 v 1.0583 h -0.2646 z m 0.2646,0 h 0.2646 v 1.0583 h -0.2646 z m 0.2646,0 h 0.2646 v 1.0583 h -0.2646 z m 0.2646,0 h 0.2646 v 1.0583 h -0.2646 z m 0.2645,0 h 0.2646 v 1.0583 h -0.2646 z m 0.2646,0 h 0.2646 v 1.0583 h -0.2646 z m 0.2646,0 h 0.2646 v 1.0583 H 15.875 Z m 0.2646,0 h 0.2646 v 1.0583 h -0.2646 z m 0.2646,0 h 0.2646 v 1.0583 h -0.2646 z m 0.2646,0 h 0.2646 v 1.0583 h -0.2646 z m 0.2645,0 h 0.2646 v 1.0583 h -0.2646 z m 0.2646,0 h 0.2646 v 1.0583 h -0.2646 z m 0.2646,0 h 0.2646 v 1.0583 h -0.2646 z m 0.2646,0 h 0.2646 v 1.0583 h -0.2646 z m 0.2646,0 h 0.2646 v 1.0583 h -0.2646 z m 0.2646,0 h 0.2646 v 1.0583 h -0.2646 z m 0.2645,0 h 0.2646 v 1.0583 h -0.2646 z m 0.2646,0 H 19.05 v 1.0583 h -0.2646 z m 0.2646,0 h 0.2646 v 1.0583 H 19.05 Z m 0.2646,0 h 0.2646 v 1.0583 h -0.2646 z m 0.2646,0 h 0.2646 v 1.0583 h -0.2646 z m 0.2646,0 h 0.2646 v 1.0583 h -0.2646 z m 0.2645,0 h 0.2646 v 1.0583 h -0.2646 z m 0.2646,0 h 0.2646 v 1.0583 h -0.2646 z m 0.2646,0 h 0.2646 v 1.0583 h -0.2646 z m 0.2646,0 h 0.2646 v 1.0583 h -0.2646 z m 0.2646,0 h 0.2646 v 1.0583 h -0.2646 z m 0.2646,0 h 0.2646 v 1.0583 h -0.2646 z m 0.2645,0 h 0.2646 v 1.0583 h -0.2646 z m 0.2646,0 h 0.2646 v 1.0583 h -0.2646 z m 0.2646,0 h 0.2646 v 1.0583 H 22.225 Z m 0.2646,0 h 0.2646 v 1.0583 h -0.2646 z m 0.2646,0 h 0.2646 v 1.0583 h -0.2646 z m 0.2646,0 h 0.2646 v 1.0583 h -0.2646 z m 0.2645,0 h 0.2646 v 1.0583 h -0.2646 z m 0.2646,0 h 0.2646 v 1.0583 h -0.2646 z m 0.2646,0 h 0.2646 v 1.0583 h -0.2646 z m 0.2646,0 h 0.2646 v 1.0583 h -0.2646 z m 0.2646,0 h 0.2646 v 1.0583 h -0.2646 z m 0.2646,0 h 0.2646 v 1.0583 h -0.2646 z m 0.2645,0 h 0.2646 v 1.0583 h -0.2646 z m 0.2646,0 H 25.4 v 1.0583 h -0.2646 z m 0.2646,0 h 0.2646 v 1.0583 H 25.4 Z m 0.2646,0 h 0.2646 v 1.0583 h -0.2646 z m 0.2646,0 h 0.2646 v 1.0583 h -0.2646 z m 0.2646,0 h 0.2646 v 1.0583 h -0.2646 z m 0.2645,0 h 0.2646 v 1.0583 h -0.2646 z m 0.2646,0 h 0.2646 v 1.0583 h -0.2646 z m 0.2646,0 h 0.2646 v 1.0583 h -0.2646 z m 0.2646,0 h 0.2646 v 1.0583 h -0.2646 z m 0.2646,0 h 0.2646 v 1.0583 h -0.2646 z m 0.2646,0 h 0.2646 v 1.0583 h -0.2646 z m 0.2646,0 h 0.2646 v 1.0583 h -0.2646 z m 0.2645,0 h 0.2646 v 1.0583 h -0.2646 z m 0.2646,0 h 0.2646 v 1.0583 H 28.575 Z m 0.2646,0 h 0.2646 v 1.0583 h -0.2646 z m 0.2646,0 h 0.2646 v 1.0583 h -0.2646 z m 0.2646,0 h 0.2646 v 1.0583 h -0.2646 z m 0.2646,0 h 0.2646 v 1.0583 h -0.2646 z m 0.2645,0 h 0.2646 v 1.0583 h -0.2646 z m 0.2646,0 h 0.2646 v 1.0583 h -0.2646 z m 0.2646,0 h 0.2646 v 1.0583 h -0.2646 z m 0.2646,0 h 0.2646 v 1.0583 h -0.2646 z m 0.2646,0 h 0.2646 v 1.0583 h -0.2646 z m 0.2646,0 h 0.2646 v 1.0583 h -0.2646 z m 0.2645,0 H 31.75 v 1.0583 h -0.2646 z m 0.2646,0 h 0.2646 v 1.0583 H 31.75 Z m 0.2646,0 h 0.2646 v 1.0583 h -0.2646 z m 0.2646,0 h 0.2646 v 1.0583 h -0.2646 z m 0.2646,0 h 0.2646 v 1.0583 h -0.2646 z m 0.2646,0 h 0.2646 v 1.0583 h -0.2646 z m 0.2645,0 h 0.2646 v 1.0583 h -0.2646 z m 0.2646,0 h 0.2646 v 1.0583 h -0.2646 z m 0.2646,0 h 0.2646 v 1.0583 h -0.2646 z m 0.2646,0 h 0.2646 v 1.0583 h -0.2646 z m 0.2646,0 h 0.2646 v 1.0583 h -0.2646 z m 0.2646,0 h 0.2646 v 1.0583 h -0.2646 z m 0.2645,0 h 0.2646 v 1.0583 h -0.2646 z m 0.2646,0 h 0.2646 v 1.0583 H 34.925 Z m 0.2646,0 h 0.2646 v 1.0583 h -0.2646 z m 0.2646,0 h 0.2646 v 1.0583 h -0.2646 z m 0.2646,0 h 0.2646 v 1.0583 h -0.2646 z m 0.2646,0 h 0.2646 v 1.0583 h -0.2646 z m 0.2645,0 h 0.2646 v 1.0583 h -0.2646 z m 0.2646,0 h 0.2646 v 1.0583 h -0.2646 z m 0.2646,0 h 0.2646 v 1.0583 h -0.2646 z m 0.2646,0 h 0.2646 v 1.0583 h -0.2646 z m 0.2646,0 h 0.2646 v 1.0583 h -0.2646 z m 0.2646,0 h 0.2646 v 1.0583 h -0.2646 z m 0.2645,0 H 38.1 v 1.0583 h -0.2646 z m 0.2646,0 h 0.2646 v 1.0583 H 38.1 Z m 0.2646,0 h 0.2646 v 1.0583 h -0.2646 z m 0.2646,0 h 0.2646 v 1.0583 h -0.2646 z m 0.2646,0 h 0.2646 v 1.0583 h -0.2646 z m 0.2646,0 h 0.2646 v 1.0583 h -0.2646 z m 0.2645,0 h 0.2646 v 1.0583 h -0.2646 z m 0.2646,0 h 0.2646 v 1.0583 h -0.2646 z m 0.2646,0 h 0.2646 v 1.0583 h -0.2646 z m 0.2646,0 h 0.2646 v 1.0583 h -0.2646 z m 0.2646,0 h 0.2646 v 1.0583 h -0.2646 z m 0.2646,0 h 0.2646 v 1.0583 h -0.2646 z m 0.2645,0 h 0.2646 v 1.0583 h -0.2646 z m 0.2646,0 h 0.2646 v 1.0583 H 41.275 Z m 0.2646,0 h 0.2646 v 1.0583 h -0.2646 z m 0.2646,0 h 0.2646 v 1.0583 h -0.2646 z m 0.2646,0 h 0.2646 v 1.0583 h -0.2646 z m 0.2646,0 h 0.2646 v 1.0583 h -0.2646 z m 0.2645,0 h 0.2646 v 1.0583 h -0.2646 z m 0.2646,0 h 0.2646 v 1.0583 h -0.2646 z m 0.2646,0 h 0.2646 v 1.0583 h -0.2646 z m 0.2646,0 h 0.2646 v 1.0583 h -0.2646 z m 0.2646,0 h 0.2646 v 1.0583 h -0.2646 z m 0.2646,0 h 0.2646 v 1.0583 h -0.2646 z m 0.2645,0 H 44.45 v 1.0583 h -0.2646 z m 0.2646,0 h 0.2646 v 1.0583 H 44.45 Z m 0.2646,0 h 0.2646 v 1.0583 h -0.2646 z m 0.2646,0 h 0.2646 v 1.0583 h -0.2646 z m 0.2646,0 h 0.2646 v 1.0583 h -0.2646 z m 0.2646,0 h 0.2646 v 1.0583 h -0.2646 z m 0.2645,0 h 0.2646 v 1.0583 h -0.2646 z m 0.2646,0 h 0.2646 v 1.0583 h -0.2646 z m 0.2646,0 h 0.2646 v 1.0583 h -0.2646 z m 0.2646,0 h 0.2646 v 1.0583 h -0.2646 z m 0.2646,0 h 0.2646 v 1.0583 h -0.2646 z m 0.2646,0 h 0.2646 v 1.0583 h -0.2646 z m 0.2645,0 h 0.2646 v 1.0583 h -0.2646 z m 0.2646,0 h 0.2646 v 1.0583 H 47.625 Z m 0.2646,0 h 0.2646 v 1.0583 h -0.2646 z m 0.2646,0 h 0.2646 v 1.0583 h -0.2646 z m 0.2646,0 h 0.2646 v 1.0583 h -0.2646 z m 0.2646,0 h 0.2646 v 1.0583 h -0.2646 z m 0.2645,0 h 0.2646 v 1.0583 h -0.2646 z m 0.2646,0 h 0.2646 v 1.0583 h -0.2646 z m 0.2646,0 h 0.2646 v 1.0583 h -0.2646 z m 0.2646,0 h 0.2646 v 1.0583 h -0.2646 z m 0.2646,0 h 0.2646 v 1.0583 h -0.2646 z m 0.2646,0 h 0.2646 v 1.0583 h -0.2646 z m 0.2645,0 H 50.8 v 1.0583 h -0.2646 z m 0.2646,0 h 0.2646 v 1.0583 H 50.8 Z m 0.2646,0 h 0.2646 v 1.0583 h -0.2646 z m 0.2646,0 h 0.2646 v 1.0583 h -0.2646 z m 0.2646,0 h 0.2646 v 1.0583 h -0.2646 z m 0.2646,0 h 0.2646 v 1.0583 h -0.2646 z m 0.2645,0 h 0.2646 v 1.0583 h -0.2646 z m 0.2646,0 h 0.2646 v 1.0583 h -0.2646 z m 0.2646,0 h 0.2646 v 1.0583 h -0.2646 z"
         style="fill:#132239;stroke-width:0.214;stroke-linecap:square"
         id="path6947" />
    </g>
  </g>
</svg>
